<svg xmlns="http://www.w3.org/2000/svg">
<symbol viewBox="0 0 251 188" id="burger">
<path fill-rule="evenodd" clip-rule="evenodd" d="M22.373 44.746H228.205C240.561 44.746 250.579 34.729 250.579 22.373C250.579 10.017 240.562 0 228.205 0H22.373C10.017 0.001 0 10.017 0 22.374C0 34.73 10.017 44.746 22.373 44.746ZM228.205 71.594H22.373C10.017 71.594 0 81.611 0 93.967C0 106.324 10.017 116.34 22.373 116.34H228.205C240.561 116.34 250.579 106.324 250.579 93.967C250.579 81.611 240.561 71.594 228.205 71.594ZM228.205 143.188H22.373C10.017 143.188 0 153.204 0 165.561C0 177.917 10.017 187.934 22.373 187.934H228.205C240.561 187.934 250.579 177.917 250.579 165.561C250.579 153.204 240.561 143.188 228.205 143.188Z" fill="currentColor"/>
</symbol>
</svg>
