<svg xmlns="http://www.w3.org/2000/svg">
<symbol viewBox="0 0 142 165" id="logo">
<path opacity="0.8" d="M8.72 73.26V35.12H10.13V73.26H11.53V36.38H12.92V73.26H14.33V37.64H15.7V73.26H17.14V38.65H18.49V73.26H30.69V18.1L9.09 8.39L1.09 15.06V73.26H8.72Z" fill="#05613B"/>
<path d="M4.70999 101.1H9.96999V107.97H14.11V91.29H9.96999V97.47H4.70999V91.29H0.579987V107.97H4.70999V101.1Z" fill="currentColor"/>
<path d="M26.39 108.24C28.82 108.24 30.8 107.47 32.27 105.94C33.73 104.42 34.47 102.3 34.47 99.65C34.47 97 33.72 94.84 32.25 93.32C30.77 91.79 28.78 91.02 26.34 91.02C25 91.02 23.8 91.24 22.77 91.68C21.98 92.01 21.24 92.52 20.58 93.2C19.92 93.87 19.4 94.65 19.02 95.5C18.52 96.64 18.26 98.06 18.26 99.73C18.26 102.35 19 104.44 20.47 105.96C21.94 107.48 23.93 108.25 26.39 108.25V108.24ZM22.5 99.62C22.5 97.94 22.86 96.68 23.58 95.88C24.29 95.08 25.21 94.69 26.38 94.69C27.55 94.69 28.47 95.07 29.17 95.86C29.88 96.65 30.23 97.9 30.23 99.57C30.23 101.24 29.86 102.54 29.13 103.35C28.41 104.16 27.51 104.56 26.37 104.56C25.23 104.56 24.33 104.16 23.6 103.34C22.86 102.52 22.49 101.26 22.49 99.61L22.5 99.62Z" fill="currentColor"/>
<path d="M52.07 105.23C52.43 104.49 52.62 103.72 52.62 102.93C52.62 101.92 52.33 101.02 51.75 100.27C51.36 99.76 50.85 99.35 50.24 99.04C50.61 98.75 50.92 98.41 51.18 98.01C51.63 97.32 51.85 96.55 51.85 95.72C51.85 94.96 51.67 94.26 51.3 93.64C50.94 93.03 50.49 92.54 49.95 92.17C49.41 91.8 48.8 91.56 48.12 91.44C47.48 91.33 46.52 91.28 45.26 91.28H38.49V107.96H44.33C46.39 107.94 47.66 107.91 48.21 107.85C49.13 107.75 49.92 107.47 50.56 107.02C51.2 106.57 51.71 105.97 52.08 105.22L52.07 105.23ZM45.08 104.36H42.62V101.12H44.7C46.42 101.12 47.1 101.23 47.36 101.32C47.7 101.44 47.95 101.61 48.12 101.86C48.29 102.11 48.38 102.41 48.38 102.79C48.38 103.23 48.27 103.56 48.06 103.8C47.83 104.05 47.55 104.21 47.17 104.28C46.98 104.32 46.47 104.37 45.09 104.37L45.08 104.36ZM47.47 97.06C47.23 97.3 46.91 97.43 46.47 97.49C46.28 97.51 45.73 97.54 44.22 97.54H42.62V94.87H43.96C45.79 94.87 46.42 94.9 46.62 94.92C47.03 94.97 47.33 95.1 47.51 95.31C47.7 95.53 47.79 95.81 47.79 96.18C47.79 96.55 47.68 96.85 47.46 97.07L47.47 97.06Z" fill="currentColor"/>
<path d="M61.12 94.89H68.59V91.29H56.98V107.97H61.12V94.89Z" fill="currentColor"/>
<path d="M78.95 108.24C81.38 108.24 83.36 107.47 84.83 105.94C86.29 104.42 87.03 102.3 87.03 99.65C87.03 97 86.28 94.84 84.81 93.32C83.33 91.79 81.34 91.02 78.9 91.02C77.56 91.02 76.36 91.24 75.33 91.68C74.54 92.01 73.8 92.52 73.14 93.2C72.48 93.87 71.96 94.65 71.58 95.5C71.08 96.64 70.82 98.06 70.82 99.73C70.82 102.35 71.56 104.44 73.03 105.96C74.5 107.48 76.49 108.25 78.95 108.25V108.24ZM75.05 99.62C75.05 97.94 75.41 96.68 76.13 95.88C76.84 95.08 77.76 94.69 78.93 94.69C80.1 94.69 81.02 95.07 81.72 95.86C82.43 96.65 82.78 97.9 82.78 99.57C82.78 101.24 82.41 102.54 81.68 103.35C80.96 104.16 80.06 104.56 78.92 104.56C77.78 104.56 76.88 104.16 76.15 103.34C75.41 102.52 75.04 101.26 75.04 99.61L75.05 99.62Z" fill="currentColor"/>
<path d="M100.15 101.8C100.77 101.67 101.38 101.39 101.97 100.98C102.57 100.56 103.07 99.98 103.45 99.26C103.84 98.53 104.03 97.64 104.03 96.6C104.03 95.25 103.69 94.12 103.02 93.25C102.35 92.38 101.5 91.8 100.5 91.54C99.87 91.37 98.59 91.29 96.6 91.29H91.03V107.97H95.17V102.04H96.76C98.24 102.04 99.35 101.96 100.15 101.8ZM95.17 94.91H96.22C97.6 94.91 98.18 94.96 98.42 95.01C98.83 95.08 99.16 95.26 99.43 95.56C99.69 95.84 99.81 96.2 99.81 96.65C99.81 97.02 99.72 97.33 99.53 97.6C99.35 97.87 99.09 98.07 98.76 98.2C98.51 98.3 97.9 98.41 96.43 98.41H95.17V94.91Z" fill="currentColor"/>
<path d="M121.24 105.94C122.7 104.42 123.44 102.3 123.44 99.65C123.44 97 122.69 94.84 121.22 93.32C119.74 91.79 117.75 91.02 115.31 91.02C113.97 91.02 112.77 91.24 111.74 91.68C110.95 92.01 110.21 92.52 109.55 93.2C108.89 93.87 108.37 94.65 107.99 95.5C107.49 96.64 107.23 98.06 107.23 99.73C107.23 102.35 107.97 104.44 109.44 105.96C110.91 107.48 112.9 108.25 115.36 108.25C117.82 108.25 119.77 107.48 121.24 105.95V105.94ZM111.46 99.62C111.46 97.94 111.82 96.68 112.54 95.88C113.25 95.08 114.17 94.69 115.34 94.69C116.51 94.69 117.43 95.07 118.13 95.86C118.84 96.65 119.19 97.9 119.19 99.57C119.19 101.24 118.82 102.54 118.09 103.35C117.37 104.16 116.47 104.56 115.33 104.56C114.19 104.56 113.29 104.16 112.56 103.34C111.82 102.52 111.45 101.26 111.45 99.61L111.46 99.62Z" fill="currentColor"/>
<path d="M10.64 125.72C10.4 126.77 10.01 127.53 9.48 128C8.96 128.46 8.35 128.68 7.62 128.68C6.61 128.68 5.82 128.32 5.2 127.58C4.56 126.83 4.24 125.5 4.24 123.64C4.24 121.89 4.57 120.63 5.21 119.89C5.85 119.16 6.65 118.8 7.68 118.8C8.42 118.8 9.02 119 9.53 119.4C10.04 119.81 10.36 120.35 10.53 121.06L10.64 121.53L14.74 120.55L14.6 120.07C14.22 118.73 13.63 117.69 12.86 116.96C11.57 115.74 9.88 115.12 7.84 115.12C5.51 115.12 3.6 115.9 2.16 117.44C0.73 118.97 0 121.13 0 123.86C0 126.45 0.72 128.53 2.15 130.04C3.58 131.56 5.43 132.33 7.65 132.33C9.44 132.33 10.94 131.88 12.12 130.98C13.3 130.08 14.15 128.71 14.65 126.9L14.77 126.45L10.76 125.18L10.64 125.69V125.72Z" fill="currentColor"/>
<path d="M21.36 125.16H29.25V121.55H21.36V119.03H29.84V115.41H17.22V132.09H30.14V128.48H21.36V125.16Z" fill="currentColor"/>
<path d="M33.8 127.57C33.8 128.36 33.64 128.51 33.64 128.51C33.6 128.54 33.39 128.68 32.6 128.68L31.41 128.66V132.05L31.86 132.08C32.86 132.15 33.54 132.19 33.92 132.19C35.11 132.19 35.97 131.94 36.57 131.44C37.15 130.94 37.52 130.25 37.67 129.38C37.8 128.59 37.87 127.25 37.87 125.27V119.04H41.64V132.1H45.78V115.42H33.8V127.58V127.57Z" fill="currentColor"/>
<path d="M56.83 121.69H53.06V115.41H48.92V132.09H56.82C58.21 132.09 59.25 131.95 60.01 131.66C60.79 131.36 61.49 130.79 62.09 129.97C62.69 129.14 63 128.13 63 126.95C63 125.52 62.5 124.27 61.52 123.25C60.53 122.22 58.95 121.7 56.82 121.7L56.83 121.69ZM53.06 125.29H55.81C57.24 125.29 57.9 125.52 58.2 125.72C58.58 125.97 58.76 126.34 58.76 126.9C58.76 127.28 58.65 127.59 58.42 127.85C58.18 128.12 57.92 128.29 57.63 128.36C57.39 128.42 56.86 128.49 55.67 128.49H53.06V125.29Z" fill="currentColor"/>
<path d="M74.97 125.72C74.73 126.77 74.34 127.53 73.81 128C73.29 128.46 72.68 128.68 71.95 128.68C70.95 128.68 70.15 128.32 69.53 127.58C68.89 126.83 68.57 125.5 68.57 123.64C68.57 121.9 68.9 120.63 69.54 119.89C70.18 119.16 70.99 118.8 72.01 118.8C72.75 118.8 73.35 119 73.86 119.4C74.37 119.81 74.69 120.35 74.85 121.06L74.96 121.53L79.06 120.55L78.92 120.07C78.54 118.73 77.95 117.69 77.18 116.96C75.89 115.74 74.2 115.12 72.16 115.12C69.83 115.12 67.92 115.9 66.48 117.44C65.05 118.97 64.32 121.14 64.32 123.86C64.32 126.45 65.04 128.53 66.47 130.04C67.9 131.56 69.75 132.33 71.97 132.33C73.76 132.33 75.26 131.88 76.44 130.98C77.62 130.09 78.47 128.71 78.97 126.9L79.09 126.45L75.07 125.18L74.95 125.69L74.97 125.72Z" fill="currentColor"/>
<path d="M79.87 119.03H84.54V132.09H88.67V119.03H93.33V115.41H79.87V119.03Z" fill="currentColor"/>
<path d="M104.68 115.66C104.05 115.49 102.77 115.41 100.78 115.41H95.21V132.09H99.35V126.16H100.94C102.42 126.16 103.53 126.08 104.33 125.92C104.95 125.79 105.56 125.51 106.15 125.1C106.75 124.68 107.25 124.1 107.63 123.38C108.02 122.65 108.21 121.76 108.21 120.72C108.21 119.37 107.87 118.24 107.2 117.37C106.53 116.5 105.68 115.92 104.68 115.66ZM99.34 119.03H100.39C101.77 119.03 102.35 119.08 102.59 119.13C103 119.2 103.33 119.38 103.6 119.68C103.86 119.96 103.98 120.32 103.98 120.77C103.98 121.14 103.89 121.45 103.7 121.72C103.52 121.99 103.26 122.19 102.93 122.32C102.68 122.42 102.07 122.53 100.6 122.53H99.34V119.03Z" fill="currentColor"/>
<path d="M117.8 115.14C116.46 115.14 115.26 115.36 114.23 115.8C113.44 116.13 112.7 116.64 112.04 117.32C111.38 117.99 110.86 118.77 110.48 119.62C109.98 120.76 109.72 122.18 109.72 123.85C109.72 126.47 110.46 128.56 111.93 130.08C113.4 131.6 115.39 132.37 117.85 132.37C120.31 132.37 122.26 131.6 123.73 130.07C125.19 128.55 125.93 126.43 125.93 123.78C125.93 121.13 125.18 118.97 123.71 117.45C122.23 115.92 120.24 115.15 117.8 115.15V115.14ZM121.68 123.69C121.68 125.38 121.31 126.66 120.58 127.47C119.86 128.28 118.96 128.68 117.82 128.68C116.68 128.68 115.78 128.28 115.05 127.46C114.31 126.64 113.94 125.38 113.94 123.73C113.94 122.08 114.3 120.79 115.02 119.99C115.73 119.19 116.65 118.8 117.82 118.8C118.99 118.8 119.91 119.18 120.61 119.97C121.32 120.76 121.67 122.01 121.67 123.68L121.68 123.69Z" fill="currentColor"/>
<path d="M137.83 115.41L132.21 124.64V115.41H128.28V132.09H132.2L137.81 123.03V132.09H141.74V115.41H137.83Z" fill="currentColor"/>
<path d="M6.41 148.85L7.99 149.35C7.75 150.23 7.35 150.88 6.78 151.31C6.22 151.74 5.5 151.95 4.64 151.95C3.57 151.95 2.69 151.58 2 150.85C1.31 150.12 0.970001 149.12 0.970001 147.85C0.970001 146.51 1.32 145.47 2.01 144.72C2.7 143.98 3.61 143.61 4.74 143.61C5.73 143.61 6.53 143.9 7.14 144.49C7.51 144.83 7.78 145.33 7.97 145.98L6.36 146.36C6.26 145.94 6.07 145.61 5.76 145.37C5.46 145.13 5.09 145.01 4.66 145.01C4.06 145.01 3.58 145.22 3.2 145.65C2.83 146.08 2.64 146.77 2.64 147.73C2.64 148.75 2.82 149.48 3.19 149.91C3.56 150.34 4.03 150.56 4.62 150.56C5.05 150.56 5.43 150.42 5.74 150.15C6.05 149.88 6.28 149.44 6.41 148.85Z" fill="currentColor"/>
<path d="M11.14 151.81V145.11H8.75V143.75H15.16V145.11H12.77V151.81H11.14Z" fill="currentColor"/>
<path d="M16.42 151.81V143.75H19.03C20.02 143.75 20.67 143.79 20.97 143.87C21.43 143.99 21.82 144.25 22.13 144.66C22.44 145.07 22.6 145.59 22.6 146.23C22.6 146.73 22.51 147.14 22.33 147.48C22.15 147.82 21.92 148.08 21.65 148.27C21.37 148.46 21.09 148.59 20.81 148.65C20.42 148.73 19.86 148.77 19.12 148.77H18.06V151.81H16.43H16.42ZM18.05 145.11V147.4H18.94C19.58 147.4 20.01 147.36 20.23 147.27C20.45 147.19 20.62 147.05 20.74 146.87C20.86 146.69 20.92 146.48 20.92 146.24C20.92 145.95 20.83 145.7 20.66 145.51C20.49 145.32 20.27 145.2 20.01 145.15C19.82 145.11 19.43 145.1 18.84 145.1H18.05V145.11Z" fill="currentColor"/>
<path d="M23.67 147.83C23.67 147.01 23.79 146.32 24.04 145.76C24.22 145.35 24.47 144.98 24.79 144.65C25.11 144.32 25.45 144.08 25.83 143.92C26.33 143.71 26.91 143.6 27.57 143.6C28.76 143.6 29.71 143.97 30.42 144.71C31.13 145.45 31.49 146.47 31.49 147.79C31.49 149.11 31.14 150.11 30.43 150.85C29.72 151.59 28.78 151.95 27.59 151.95C26.4 151.95 25.44 151.58 24.73 150.85C24.02 150.12 23.67 149.11 23.67 147.83ZM25.35 147.77C25.35 148.68 25.56 149.38 25.98 149.85C26.4 150.32 26.94 150.56 27.59 150.56C28.24 150.56 28.77 150.33 29.19 149.86C29.61 149.39 29.81 148.69 29.81 147.76C29.81 146.83 29.61 146.15 29.2 145.69C28.79 145.23 28.26 145.01 27.59 145.01C26.92 145.01 26.38 145.24 25.97 145.7C25.56 146.16 25.35 146.85 25.35 147.78V147.77Z" fill="currentColor"/>
<path d="M33 143.75H34.52V149.12L37.79 143.75H39.41V151.81H37.89V146.55L34.63 151.81H33V143.75Z" fill="currentColor"/>
<path d="M43.1 151.81V145.11H40.71V143.75H47.12V145.11H44.73V151.81H43.1Z" fill="currentColor"/>
<path d="M48.38 151.81V143.75H54.36V145.11H50.01V146.9H54.06V148.26H50.01V150.46H54.51V151.82H48.38V151.81Z" fill="currentColor"/>
<path d="M56.69 143.75H62.34V151.81H60.71V145.11H58.28V148.55C58.28 149.54 58.25 150.23 58.18 150.62C58.11 151.01 57.95 151.32 57.7 151.53C57.45 151.75 57.05 151.86 56.5 151.86C56.31 151.86 55.96 151.84 55.46 151.8V150.54H55.82C56.16 150.54 56.39 150.5 56.51 150.41C56.63 150.32 56.69 150.09 56.69 149.73V148.34V143.74V143.75Z" fill="currentColor"/>
<path d="M64.27 143.75H65.9V146.97H68.08C69.11 146.97 69.85 147.21 70.31 147.69C70.77 148.17 71 148.75 71 149.42C71 149.97 70.86 150.44 70.58 150.82C70.3 151.2 69.98 151.47 69.63 151.6C69.28 151.73 68.76 151.81 68.08 151.81H64.27V143.75ZM65.89 150.46H67.47C67.98 150.46 68.34 150.44 68.54 150.39C68.74 150.34 68.92 150.23 69.07 150.05C69.23 149.87 69.3 149.66 69.3 149.4C69.3 149.03 69.17 148.76 68.9 148.59C68.63 148.42 68.18 148.33 67.54 148.33H65.88V150.46H65.89Z" fill="currentColor"/>
<path d="M72.55 151.81V143.75H74.18V146.92H77.37V143.75H79V151.81H77.37V148.28H74.18V151.81H72.55Z" fill="currentColor"/>
<path d="M88.17 151.81H86.4L85.7 149.98H82.48L81.81 151.81H80.08L83.22 143.75H84.94L88.17 151.81ZM85.17 148.62L84.06 145.63L82.97 148.62H85.17Z" fill="currentColor"/>
<path d="M94.07 151.81V148.44H93.74C93.23 148.44 92.86 148.52 92.65 148.67C92.44 148.82 92.08 149.28 91.57 150.05L90.39 151.8H88.44L89.42 150.23C89.81 149.61 90.12 149.17 90.35 148.92C90.58 148.67 90.87 148.44 91.22 148.25C90.47 148.13 89.93 147.87 89.59 147.47C89.26 147.06 89.09 146.58 89.09 146.01C89.09 145.52 89.21 145.08 89.46 144.7C89.71 144.32 90.03 144.07 90.44 143.94C90.85 143.81 91.45 143.74 92.26 143.74H95.69V151.8H94.06L94.07 151.81ZM94.07 145.11H92.8C92.15 145.11 91.73 145.12 91.53 145.15C91.33 145.18 91.15 145.28 91 145.45C90.85 145.62 90.78 145.84 90.78 146.11C90.78 146.38 90.85 146.62 90.99 146.78C91.13 146.95 91.31 147.05 91.53 147.09C91.75 147.13 92.19 147.15 92.86 147.15H94.06V145.1L94.07 145.11Z" fill="currentColor"/>
<path d="M1.28 156.42H2.91V159.85C3.27 159.81 3.52 159.72 3.65 159.57C3.78 159.42 3.98 159 4.24 158.32C4.58 157.45 4.92 156.9 5.26 156.69C5.6 156.48 6.14 156.37 6.89 156.37C6.93 156.37 7.01 156.37 7.13 156.37V157.57H6.9C6.57 157.57 6.32 157.61 6.17 157.69C6.02 157.77 5.89 157.9 5.8 158.07C5.7 158.24 5.56 158.59 5.38 159.11C5.28 159.39 5.17 159.62 5.06 159.81C4.94 160 4.74 160.17 4.45 160.34C4.81 160.44 5.11 160.65 5.35 160.96C5.59 161.27 5.85 161.71 6.13 162.28L7.23 164.49H5.32L4.36 162.41C4.36 162.41 4.31 162.32 4.27 162.24C4.25 162.21 4.18 162.08 4.07 161.86C3.86 161.46 3.69 161.22 3.56 161.12C3.43 161.02 3.22 160.97 2.95 160.97V164.5H1.32V156.44L1.28 156.42Z" fill="currentColor"/>
<path d="M8.01001 160.5C8.01001 159.68 8.13001 158.99 8.38001 158.43C8.56001 158.02 8.81001 157.65 9.13001 157.32C9.45001 156.99 9.79001 156.75 10.17 156.59C10.67 156.38 11.25 156.27 11.91 156.27C13.1 156.27 14.05 156.64 14.76 157.38C15.47 158.12 15.83 159.14 15.83 160.46C15.83 161.78 15.48 162.78 14.77 163.52C14.06 164.26 13.12 164.62 11.93 164.62C10.74 164.62 9.78001 164.25 9.07001 163.52C8.36001 162.79 8.01001 161.78 8.01001 160.5ZM9.69001 160.45C9.69001 161.36 9.90001 162.06 10.32 162.53C10.74 163 11.28 163.24 11.93 163.24C12.58 163.24 13.11 163.01 13.53 162.54C13.95 162.07 14.15 161.37 14.15 160.44C14.15 159.51 13.95 158.83 13.54 158.37C13.13 157.91 12.6 157.69 11.93 157.69C11.26 157.69 10.72 157.92 10.31 158.38C9.90001 158.84 9.69001 159.53 9.69001 160.46V160.45Z" fill="currentColor"/>
<path d="M17.3 164.49V156.43H19.74L21.2 161.93L22.65 156.43H25.09V164.49H23.58V158.14L21.98 164.49H20.41L18.82 158.14V164.49H17.31H17.3Z" fill="currentColor"/>
<path d="M26.94 156.42H33.35V164.48H31.72V157.77H28.56V164.48H26.93V156.42H26.94Z" fill="currentColor"/>
<path d="M42.5 164.49H40.73L40.03 162.66H36.81L36.14 164.49H34.41L37.55 156.43H39.27L42.5 164.49ZM39.51 161.29L38.4 158.3L37.31 161.29H39.51Z" fill="currentColor"/>
<path d="M43.59 164.49V156.43H45.22V159.6H48.41V156.43H50.04V164.49H48.41V160.96H45.22V164.49H43.59Z" fill="currentColor"/>
<path d="M51.95 156.42H53.47V161.79L56.74 156.42H58.36V164.48H56.84V159.22L53.58 164.48H51.95V156.42Z" fill="currentColor"/>
<path d="M65.07 164.49V161.12H64.74C64.23 161.12 63.86 161.2 63.65 161.35C63.44 161.5 63.08 161.96 62.57 162.73L61.39 164.48H59.44L60.42 162.91C60.81 162.29 61.12 161.85 61.35 161.6C61.58 161.35 61.87 161.12 62.22 160.93C61.47 160.81 60.93 160.55 60.59 160.15C60.26 159.74 60.09 159.26 60.09 158.69C60.09 158.2 60.21 157.76 60.46 157.38C60.71 157 61.03 156.75 61.44 156.62C61.85 156.49 62.45 156.42 63.26 156.42H66.69V164.48H65.06L65.07 164.49ZM65.07 157.78H63.8C63.15 157.78 62.73 157.79 62.53 157.82C62.33 157.85 62.15 157.95 62 158.12C61.85 158.29 61.78 158.51 61.78 158.78C61.78 159.05 61.85 159.29 61.99 159.45C62.13 159.62 62.31 159.72 62.53 159.76C62.75 159.8 63.19 159.82 63.86 159.82H65.06V157.77L65.07 157.78Z" fill="currentColor"/>
<path d="M141.63 107.96V104.37H140.25V91.29H128.42V93.43C128.42 96.12 128.32 98.37 128.11 100.11C127.92 101.71 127.55 103.14 126.99 104.37H125.49V107.96H141.63ZM132.4 94.89H136.12V104.37H131.31C132.01 102.2 132.38 99.02 132.4 94.89Z" fill="currentColor"/>
<path d="M141.69 110.81H134.71V113.76H141.69V110.81Z" fill="currentColor"/>
<path opacity="0.8" d="M38.53 73.26V48.79H39.88V73.26H41.32V47.77H42.68V73.26H44.1V46.51H45.49V73.26H46.89V45.26H48.29V73.26H66.57V28.4L49.16 17.26L25.12 25.67V73.26H38.53Z" fill="#D5322D"/>
<path d="M97.23 65.17H48.29V73.26H97.23V65.17Z" fill="#F6AE2B"/>
<path d="M66.56 52.65H25.12V60.74H66.56V52.65Z" fill="#D5322D"/>
<path opacity="0.8" d="M79.02 73.26V19.73H80.69V73.26H81.83V22.34H83.46V73.26H84.64V24.45H86.24V73.26H87.45V26.56H89.02V73.26H97.24V18.16L73.2 0L61.18 8V73.26H79.02Z" fill="#F6AE2B"/>
<path d="M38.53 65.17H1.09V73.26H38.53V65.17Z" fill="#05613B"/>
</symbol>
</svg>
