<?xml version="1.0" encoding="UTF-8"?><svg id="_Слой_2" xmlns="http://www.w3.org/2000/svg" viewBox="0 0 141.73 164.62"><defs><style>.cls-1,.cls-2,.cls-3{opacity:.8;}.cls-1,.cls-2,.cls-3,.cls-4,.cls-5,.cls-6,.cls-7{stroke-width:0px;}.cls-1,.cls-5{fill:#d5322d;}.cls-2,.cls-4{fill:#05613b;}.cls-3,.cls-7{fill:#f6ae2b;}.cls-6{fill:#fff;}</style></defs><g id="_Слой_1-2"><polygon class="cls-2" points="8.71 73.26 8.71 35.12 10.12 35.12 10.12 73.26 11.52 73.26 11.52 36.38 12.91 36.38 12.91 73.26 14.32 73.26 14.32 37.64 15.69 37.64 15.69 73.26 17.13 73.26 17.13 38.65 18.48 38.65 18.48 73.26 30.68 73.26 30.68 18.1 9.08 8.39 1.08 15.06 1.08 73.26 8.71 73.26"/><polygon class="cls-6" points="4.7 101.1 9.96 101.1 9.96 107.97 14.1 107.97 14.1 91.29 9.96 91.29 9.96 97.47 4.7 97.47 4.7 91.29 .57 91.29 .57 107.97 4.7 107.97 4.7 101.1"/><path class="cls-6" d="M26.38,108.24c2.43,0,4.41-.77,5.88-2.3,1.46-1.52,2.2-3.64,2.2-6.29s-.75-4.81-2.22-6.33c-1.48-1.53-3.47-2.3-5.91-2.3-1.34,0-2.54.22-3.57.66-.79.33-1.53.84-2.19,1.52-.66.67-1.18,1.45-1.56,2.3-.5,1.14-.76,2.56-.76,4.23,0,2.62.74,4.71,2.21,6.23,1.47,1.52,3.46,2.29,5.92,2.29ZM22.49,99.62c0-1.68.36-2.94,1.08-3.74.71-.8,1.63-1.19,2.8-1.19s2.09.38,2.79,1.17c.71.79,1.06,2.04,1.06,3.71s-.37,2.97-1.1,3.78c-.72.81-1.62,1.21-2.76,1.21s-2.04-.4-2.77-1.22c-.74-.82-1.11-2.08-1.11-3.73Z"/><path class="cls-6" d="M52.06,105.23c.36-.74.55-1.51.55-2.3,0-1.01-.29-1.91-.87-2.66-.39-.51-.9-.92-1.51-1.23.37-.29.68-.63.94-1.03.45-.69.67-1.46.67-2.29,0-.76-.18-1.46-.55-2.08-.36-.61-.81-1.1-1.35-1.47-.54-.37-1.15-.61-1.83-.73-.64-.11-1.6-.16-2.86-.16h-6.77v16.68h5.84c2.06-.02,3.33-.05,3.88-.11.92-.1,1.71-.38,2.35-.83.64-.45,1.15-1.05,1.52-1.8ZM45.07,104.36h-2.46v-3.24h2.08c1.72,0,2.4.11,2.66.2.34.12.59.29.76.54.17.25.26.55.26.93,0,.44-.11.77-.32,1.01-.23.25-.51.41-.89.48-.19.04-.7.09-2.08.09ZM47.46,97.06c-.24.24-.56.37-1,.43-.19.02-.74.05-2.25.05h-1.6v-2.67h1.34c1.83,0,2.46.03,2.66.05.41.05.71.18.89.39.19.22.28.5.28.87s-.11.67-.33.89Z"/><polygon class="cls-6" points="61.11 94.89 68.58 94.89 68.58 91.29 56.97 91.29 56.97 107.97 61.11 107.97 61.11 94.89"/><path class="cls-6" d="M78.94,108.24c2.43,0,4.41-.77,5.88-2.3,1.46-1.52,2.2-3.64,2.2-6.29s-.75-4.81-2.22-6.33c-1.48-1.53-3.47-2.3-5.91-2.3-1.34,0-2.54.22-3.57.66-.79.33-1.53.84-2.19,1.52-.66.67-1.18,1.45-1.56,2.3-.5,1.14-.76,2.56-.76,4.23,0,2.62.74,4.71,2.21,6.23,1.47,1.52,3.46,2.29,5.92,2.29ZM75.04,99.62c0-1.68.36-2.94,1.08-3.74.71-.8,1.63-1.19,2.8-1.19s2.09.38,2.79,1.17c.71.79,1.06,2.04,1.06,3.71s-.37,2.97-1.1,3.78c-.72.81-1.62,1.21-2.76,1.21s-2.04-.4-2.77-1.22c-.74-.82-1.11-2.08-1.11-3.73Z"/><path class="cls-6" d="M100.14,101.8c.62-.13,1.23-.41,1.82-.82.6-.42,1.1-1,1.48-1.72.39-.73.58-1.62.58-2.66,0-1.35-.34-2.48-1.01-3.35-.67-.87-1.52-1.45-2.52-1.71-.63-.17-1.91-.25-3.9-.25h-5.57v16.68h4.14v-5.93h1.59c1.48,0,2.59-.08,3.39-.24ZM95.16,94.91h1.05c1.38,0,1.96.05,2.2.1.41.07.74.25,1.01.55.26.28.38.64.38,1.09,0,.37-.09.68-.28.95-.18.27-.44.47-.77.6-.25.1-.86.21-2.33.21h-1.26v-3.5Z"/><path class="cls-6" d="M121.23,105.94c1.46-1.52,2.2-3.64,2.2-6.29s-.75-4.81-2.22-6.33c-1.48-1.53-3.47-2.3-5.91-2.3-1.34,0-2.54.22-3.57.66-.79.33-1.53.84-2.19,1.52-.66.67-1.18,1.45-1.56,2.3-.5,1.14-.76,2.56-.76,4.23,0,2.62.74,4.71,2.21,6.23,1.47,1.52,3.46,2.29,5.92,2.29s4.41-.77,5.88-2.3ZM111.45,99.62c0-1.68.36-2.94,1.08-3.74.71-.8,1.63-1.19,2.8-1.19s2.09.38,2.79,1.17c.71.79,1.06,2.04,1.06,3.71s-.37,2.97-1.1,3.78c-.72.81-1.62,1.21-2.76,1.21s-2.04-.4-2.77-1.22c-.74-.82-1.11-2.08-1.11-3.73Z"/><path class="cls-6" d="M10.63,125.72c-.24,1.05-.63,1.81-1.16,2.28-.52.46-1.13.68-1.86.68-1.01,0-1.8-.36-2.42-1.1-.64-.75-.96-2.08-.96-3.94,0-1.75.33-3.01.97-3.75.64-.73,1.44-1.09,2.47-1.09.74,0,1.34.2,1.85.6.51.41.83.95,1,1.66l.11.47,4.1-.98-.14-.48c-.38-1.34-.97-2.38-1.74-3.11-1.29-1.22-2.98-1.84-5.02-1.84-2.33,0-4.24.78-5.68,2.32-1.43,1.53-2.16,3.69-2.16,6.42,0,2.59.72,4.67,2.15,6.18,1.43,1.52,3.28,2.29,5.5,2.29,1.79,0,3.29-.45,4.47-1.35,1.18-.9,2.03-2.27,2.53-4.08l.12-.45-4.01-1.27-.12.51Z"/><polygon class="cls-6" points="21.35 125.16 29.24 125.16 29.24 121.55 21.35 121.55 21.35 119.03 29.83 119.03 29.83 115.41 17.21 115.41 17.21 132.09 30.13 132.09 30.13 128.48 21.35 128.48 21.35 125.16"/><path class="cls-6" d="M33.79,127.57c0,.79-.16.94-.16.94-.04.03-.25.17-1.04.17l-1.19-.02v3.39l.45.03c1,.07,1.68.11,2.06.11,1.19,0,2.05-.25,2.65-.75.58-.5.95-1.19,1.1-2.06.13-.79.2-2.13.2-4.11v-6.23h3.77v13.06h4.14v-16.68h-11.98v12.16Z"/><path class="cls-6" d="M56.82,121.69h-3.77v-6.28h-4.14v16.68h7.9c1.39,0,2.43-.14,3.19-.43.78-.3,1.48-.87,2.08-1.69.6-.83.91-1.84.91-3.02,0-1.43-.5-2.68-1.48-3.7-.99-1.03-2.57-1.55-4.7-1.55ZM53.05,125.29h2.75c1.43,0,2.09.23,2.39.43.38.25.56.62.56,1.18,0,.38-.11.69-.34.95-.24.27-.5.44-.79.51-.24.06-.77.13-1.96.13h-2.61v-3.2Z"/><path class="cls-6" d="M74.96,125.72c-.24,1.05-.63,1.81-1.16,2.28-.52.46-1.13.68-1.86.68-1,0-1.8-.36-2.42-1.1-.64-.75-.96-2.08-.96-3.94,0-1.74.33-3.01.97-3.75.64-.73,1.45-1.09,2.47-1.09.74,0,1.34.2,1.85.6.51.41.83.95.99,1.66l.11.47,4.1-.98-.14-.48c-.38-1.34-.97-2.38-1.74-3.11-1.29-1.22-2.98-1.84-5.02-1.84-2.33,0-4.24.78-5.68,2.32-1.43,1.53-2.16,3.7-2.16,6.42,0,2.59.72,4.67,2.15,6.18,1.43,1.52,3.28,2.29,5.5,2.29,1.79,0,3.29-.45,4.47-1.35,1.18-.89,2.03-2.27,2.53-4.08l.12-.45-4.02-1.27-.12.51Z"/><polygon class="cls-6" points="79.86 119.03 84.53 119.03 84.53 132.09 88.66 132.09 88.66 119.03 93.32 119.03 93.32 115.41 79.86 115.41 79.86 119.03"/><path class="cls-6" d="M104.67,115.66c-.63-.17-1.91-.25-3.9-.25h-5.57v16.68h4.14v-5.93h1.59c1.48,0,2.59-.08,3.39-.24.62-.13,1.23-.41,1.82-.82.6-.42,1.1-1,1.48-1.72.39-.73.58-1.62.58-2.66,0-1.35-.34-2.48-1.01-3.35-.67-.87-1.52-1.45-2.52-1.71ZM99.33,119.03h1.05c1.38,0,1.96.05,2.2.1.41.07.74.25,1.01.55.26.28.38.64.38,1.09,0,.37-.09.68-.28.95-.18.27-.44.47-.77.6-.25.1-.86.21-2.33.21h-1.26v-3.5Z"/><path class="cls-6" d="M117.79,115.14c-1.34,0-2.54.22-3.57.66-.79.33-1.53.84-2.19,1.52-.66.67-1.18,1.45-1.56,2.3-.5,1.14-.76,2.56-.76,4.23,0,2.62.74,4.71,2.21,6.23,1.47,1.52,3.46,2.29,5.92,2.29s4.41-.77,5.88-2.3c1.46-1.52,2.2-3.64,2.2-6.29s-.75-4.81-2.22-6.33c-1.48-1.53-3.47-2.3-5.91-2.3ZM121.67,123.69c0,1.69-.37,2.97-1.1,3.78-.72.81-1.62,1.21-2.76,1.21s-2.04-.4-2.77-1.22c-.74-.82-1.11-2.08-1.11-3.73s.36-2.94,1.08-3.74c.71-.8,1.63-1.19,2.8-1.19s2.09.38,2.79,1.17c.71.79,1.06,2.04,1.06,3.71Z"/><polygon class="cls-6" points="137.82 115.41 132.2 124.64 132.2 115.41 128.27 115.41 128.27 132.09 132.19 132.09 137.8 123.03 137.8 132.09 141.73 132.09 141.73 115.41 137.82 115.41"/><path class="cls-6" d="M6.4,148.85l1.58.5c-.24.88-.64,1.53-1.21,1.96-.56.43-1.28.64-2.14.64-1.07,0-1.95-.37-2.64-1.1s-1.03-1.73-1.03-3c0-1.34.35-2.38,1.04-3.13.69-.74,1.6-1.11,2.73-1.11.99,0,1.79.29,2.4.88.37.34.64.84.83,1.49l-1.61.38c-.1-.42-.29-.75-.6-.99-.3-.24-.67-.36-1.1-.36-.6,0-1.08.21-1.46.64-.37.43-.56,1.12-.56,2.08,0,1.02.18,1.75.55,2.18.37.43.84.65,1.43.65.43,0,.81-.14,1.12-.41.31-.27.54-.71.67-1.3Z"/><path class="cls-6" d="M11.13,151.81v-6.7h-2.39v-1.36h6.41v1.36h-2.39v6.7h-1.63Z"/><path class="cls-6" d="M16.41,151.81v-8.06h2.61c.99,0,1.64.04,1.94.12.46.12.85.38,1.16.79.31.41.47.93.47,1.57,0,.5-.09.91-.27,1.25-.18.34-.41.6-.68.79-.28.19-.56.32-.84.38-.39.08-.95.12-1.69.12h-1.06v3.04h-1.63ZM18.04,145.11v2.29h.89c.64,0,1.07-.04,1.29-.13.22-.08.39-.22.51-.4.12-.18.18-.39.18-.63,0-.29-.09-.54-.26-.73-.17-.19-.39-.31-.65-.36-.19-.04-.58-.05-1.17-.05h-.79Z"/><path class="cls-6" d="M23.66,147.83c0-.82.12-1.51.37-2.07.18-.41.43-.78.75-1.11.32-.33.66-.57,1.04-.73.5-.21,1.08-.32,1.74-.32,1.19,0,2.14.37,2.85,1.11.71.74,1.07,1.76,1.07,3.08s-.35,2.32-1.06,3.06c-.71.74-1.65,1.1-2.84,1.1s-2.15-.37-2.86-1.1c-.71-.73-1.06-1.74-1.06-3.02ZM25.34,147.77c0,.91.21,1.61.63,2.08.42.47.96.71,1.61.71s1.18-.23,1.6-.7c.42-.47.62-1.17.62-2.1s-.2-1.61-.61-2.07c-.41-.46-.94-.68-1.61-.68s-1.21.23-1.62.69c-.41.46-.62,1.15-.62,2.08Z"/><path class="cls-6" d="M32.99,143.75h1.52v5.37l3.27-5.37h1.62v8.06h-1.52v-5.26l-3.26,5.26h-1.63v-8.06Z"/><path class="cls-6" d="M43.09,151.81v-6.7h-2.39v-1.36h6.41v1.36h-2.39v6.7h-1.63Z"/><path class="cls-6" d="M48.37,151.81v-8.06h5.98v1.36h-4.35v1.79h4.05v1.36h-4.05v2.2h4.5v1.36h-6.13Z"/><path class="cls-6" d="M56.68,143.75h5.65v8.06h-1.63v-6.7h-2.43v3.44c0,.99-.03,1.68-.1,2.07-.07.39-.23.7-.48.91-.25.22-.65.33-1.2.33-.19,0-.54-.02-1.04-.06v-1.26h.36c.34,0,.57-.04.69-.13s.18-.32.18-.68v-1.39s0-4.6,0-4.6Z"/><path class="cls-6" d="M64.26,143.75h1.63v3.22h2.18c1.03,0,1.77.24,2.23.72.46.48.69,1.06.69,1.73,0,.55-.14,1.02-.42,1.4-.28.38-.6.65-.95.78s-.87.21-1.55.21h-3.81v-8.06ZM65.88,150.46h1.58c.51,0,.87-.02,1.07-.07.2-.05.38-.16.53-.34.16-.18.23-.39.23-.65,0-.37-.13-.64-.4-.81-.27-.17-.72-.26-1.36-.26h-1.66v2.13Z"/><path class="cls-6" d="M72.54,151.81v-8.06h1.63v3.17h3.19v-3.17h1.63v8.06h-1.63v-3.53h-3.19v3.53h-1.63Z"/><path class="cls-6" d="M88.16,151.81h-1.77l-.7-1.83h-3.22l-.67,1.83h-1.73l3.14-8.06h1.72l3.23,8.06ZM85.16,148.62l-1.11-2.99-1.09,2.99h2.2Z"/><path class="cls-6" d="M94.06,151.81v-3.37h-.33c-.51,0-.88.08-1.09.23s-.57.61-1.08,1.38l-1.18,1.75h-1.95l.98-1.57c.39-.62.7-1.06.93-1.31.23-.25.52-.48.87-.67-.75-.12-1.29-.38-1.63-.78-.33-.41-.5-.89-.5-1.46,0-.49.12-.93.37-1.31.25-.38.57-.63.98-.76s1.01-.2,1.82-.2h3.43v8.06h-1.63ZM94.06,145.11h-1.27c-.65,0-1.07.01-1.27.04-.2.03-.38.13-.53.3-.15.17-.22.39-.22.66s.07.51.21.67c.14.17.32.27.54.31.22.04.66.06,1.33.06h1.2v-2.05Z"/><path class="cls-6" d="M1.27,156.42h1.63v3.43c.36-.04.61-.13.74-.28.13-.15.33-.57.59-1.25.34-.87.68-1.42,1.02-1.63.34-.21.88-.32,1.63-.32.04,0,.12,0,.24,0v1.2h-.23c-.33,0-.58.04-.73.12-.15.08-.28.21-.37.38-.1.17-.24.52-.42,1.04-.1.28-.21.51-.32.7-.12.19-.32.36-.61.53.36.1.66.31.9.62.24.31.5.75.78,1.32l1.1,2.21h-1.91l-.96-2.08s-.05-.09-.09-.17c-.02-.03-.09-.16-.2-.38-.21-.4-.38-.64-.51-.74-.13-.1-.34-.15-.61-.15v3.53h-1.63v-8.06Z"/><path class="cls-6" d="M8,160.5c0-.82.12-1.51.37-2.07.18-.41.43-.78.75-1.11.32-.33.66-.57,1.04-.73.5-.21,1.08-.32,1.74-.32,1.19,0,2.14.37,2.85,1.11.71.74,1.07,1.76,1.07,3.08s-.35,2.32-1.06,3.06c-.71.74-1.65,1.1-2.84,1.1s-2.15-.37-2.86-1.1c-.71-.73-1.06-1.74-1.06-3.02ZM9.68,160.45c0,.91.21,1.61.63,2.08.42.47.96.71,1.61.71s1.18-.23,1.6-.7c.42-.47.62-1.17.62-2.1s-.2-1.61-.61-2.07c-.41-.46-.94-.68-1.61-.68s-1.21.23-1.62.69c-.41.46-.62,1.15-.62,2.08Z"/><path class="cls-6" d="M17.29,164.49v-8.06h2.44l1.46,5.5,1.45-5.5h2.44v8.06h-1.51v-6.35l-1.6,6.35h-1.57l-1.59-6.35v6.35h-1.51Z"/><path class="cls-6" d="M26.93,156.42h6.41v8.06h-1.63v-6.71h-3.16v6.71h-1.63v-8.06Z"/><path class="cls-6" d="M42.49,164.49h-1.77l-.7-1.83h-3.22l-.67,1.83h-1.73l3.14-8.06h1.72l3.23,8.06ZM39.5,161.29l-1.11-2.99-1.09,2.99h2.2Z"/><path class="cls-6" d="M43.58,164.49v-8.06h1.63v3.17h3.19v-3.17h1.63v8.06h-1.63v-3.53h-3.19v3.53h-1.63Z"/><path class="cls-6" d="M51.94,156.42h1.52v5.37l3.27-5.37h1.62v8.06h-1.52v-5.26l-3.26,5.26h-1.63v-8.06Z"/><path class="cls-6" d="M65.06,164.49v-3.37h-.33c-.51,0-.88.08-1.09.23s-.57.61-1.08,1.38l-1.18,1.75h-1.95l.98-1.57c.39-.62.7-1.06.93-1.31.23-.25.52-.48.87-.67-.75-.12-1.29-.38-1.63-.78-.33-.41-.5-.89-.5-1.46,0-.49.12-.93.37-1.31.25-.38.57-.63.98-.76s1.01-.2,1.82-.2h3.43v8.06h-1.63ZM65.06,157.78h-1.27c-.65,0-1.07.01-1.27.04-.2.03-.38.13-.53.3-.15.17-.22.39-.22.66s.07.51.21.67c.14.17.32.27.54.31.22.04.66.06,1.33.06h1.2v-2.05Z"/><path class="cls-6" d="M141.62,107.96v-3.59h-1.38v-13.08h-11.83v2.14c0,2.69-.1,4.94-.31,6.68-.19,1.6-.56,3.03-1.12,4.26h-1.5v3.59h16.14ZM132.39,94.89h3.72v9.48h-4.81c.7-2.17,1.07-5.35,1.09-9.48Z"/><rect class="cls-6" x="134.7" y="110.81" width="6.98" height="2.95"/><polygon class="cls-1" points="38.52 73.26 38.52 48.79 39.87 48.79 39.87 73.26 41.31 73.26 41.31 47.77 42.67 47.77 42.67 73.26 44.09 73.26 44.09 46.51 45.48 46.51 45.48 73.26 46.88 73.26 46.88 45.26 48.28 45.26 48.28 73.26 66.56 73.26 66.56 28.4 49.15 17.26 25.11 25.67 25.11 73.26 38.52 73.26"/><rect class="cls-7" x="48.28" y="65.17" width="48.94" height="8.09"/><rect class="cls-5" x="25.11" y="52.65" width="41.44" height="8.09"/><polygon class="cls-3" points="79.01 73.26 79.01 19.73 80.68 19.73 80.68 73.26 81.82 73.26 81.82 22.34 83.45 22.34 83.45 73.26 84.63 73.26 84.63 24.45 86.23 24.45 86.23 73.26 87.44 73.26 87.44 26.56 89.01 26.56 89.01 73.26 97.23 73.26 97.23 18.16 73.19 0 61.17 8 61.17 73.26 79.01 73.26"/><rect class="cls-4" x="1.08" y="65.17" width="37.44" height="8.09"/></g></svg>