<svg xmlns="http://www.w3.org/2000/svg">
    <symbol viewBox="0 0 1000 1000" id="logo">
        <path d="M750 0C888.071 0 1000 111.929 1000 250V750C1000 888.071 888.071 1000 750 1000H250C111.929 1000 0 888.071 0 750V250C0 111.929 111.929 0 250 0H750ZM506.219 121.388C296.719 121.388 120.024 283.415 120.024 498.862C120.024 589.212 136.594 651.376 151.489 707.261C163.651 752.89 174.697 794.333 174.697 843.513C179.752 906.283 290.107 874.023 333.227 828.033C336.453 824.593 341.756 823.853 345.605 826.578C401.607 866.228 436.434 876.337 508.201 876.337C710.49 876.337 879.975 710.584 879.976 500.955C879.976 291.326 715.718 121.388 506.219 121.388ZM317.979 479.944C335.087 371.966 412.673 302.978 512.095 308.191C614.163 313.544 695.759 402.741 690.413 504.817C685.067 606.894 594.614 686.778 492.546 681.426C461.501 679.798 433.341 668.368 408.469 653.159C404.951 651.008 400.416 651.484 397.416 654.312C381.46 669.358 359.529 686.133 350.416 683.807C328.93 678.321 303.81 569.363 317.979 479.944Z" fill="currentColor"/>
    </symbol>
</svg>
