<svg xmlns="http://www.w3.org/2000/svg">
<symbol id="icon-phone" viewBox="0 0 478 478">
<path d="M71.6641 13.8135C79.5853 11.945 87.2924 12.124 92.9541 14.0078V14.0068L100.072 16.4014L100.104 16.4111C105.996 18.3756 112.862 22.9846 118.894 29.3545C124.737 35.5262 128.881 42.3832 130.617 48.2451L130.777 48.8096L147.871 111.527C149.475 117.427 149.345 125.449 147.217 133.634C145.086 141.829 141.311 148.809 137.062 153.059L114.372 175.747L109.259 180.861L111.144 187.844C134.553 274.577 202.565 342.589 289.31 366.028L296.294 367.915L301.409 362.8L324.098 340.112L324.097 340.111C328.344 335.865 335.329 332.09 343.535 329.958C351.732 327.828 359.765 327.699 365.665 329.304V329.303L428.341 346.425L428.352 346.429L428.362 346.432C434.324 348.049 441.415 352.253 447.79 358.279C453.962 364.114 458.502 370.748 460.593 376.545L460.787 377.104L463.146 384.211L463.148 384.219C465.032 389.881 465.211 397.588 463.343 405.509C461.474 413.431 457.873 420.23 453.671 424.432V424.433L419.755 458.348C419.806 458.296 419.632 458.475 419.076 458.83C418.543 459.171 417.82 459.572 416.898 460.012C415.035 460.901 412.786 461.751 410.466 462.503C408.176 463.245 406.014 463.831 404.406 464.226C403.831 464.367 403.345 464.476 402.97 464.56C299.277 465.136 199.534 424.292 126.145 350.902C52.6338 277.391 11.7356 177.376 12.5117 73.4766C12.5923 73.156 12.69 72.7775 12.8037 72.3506C13.2099 70.8251 13.8041 68.7556 14.5537 66.5527C15.3137 64.3192 16.1686 62.1414 17.0635 60.3262C17.506 59.4286 17.9092 58.7199 18.2549 58.1914C18.5688 57.7116 18.7536 57.505 18.7773 57.4785L18.792 57.4648L18.8057 57.4512L52.7383 23.4854L52.7393 23.4863C56.9416 19.284 63.7416 15.6823 71.6641 13.8135Z" fill="currentColor" stroke="currentColor" stroke-width="25"/>
</symbol>
</svg>
