<svg xmlns="http://www.w3.org/2000/svg">
<symbol viewBox="0 0 477 477" id="icon-whatsapp">
<path d="M238.391 12.5039H238.569C363.143 12.504 464.5 113.884 464.5 238.502C464.5 363.116 363.143 464.5 238.569 464.5C192.595 464.5 149.988 450.823 114.269 427.18L109.271 423.872L103.563 425.696L35.3936 447.483L57.2656 382.265L59.3174 376.147L55.5186 370.932C28.4329 333.74 12.5 287.93 12.5 238.498C12.5 113.935 113.768 12.5885 238.268 12.5L238.391 12.5039ZM148.721 96.5889C137.816 96.5889 124.408 99.6776 115.4 108.893C107.869 116.579 87.4395 136.339 87.4395 175.688C87.4396 195.609 94.6285 214.482 101.688 228.4C108.837 242.497 116.442 252.628 118.139 254.965L118.215 255.069L118.293 255.172C118.253 255.12 118.291 255.168 118.472 255.425C118.631 255.652 118.836 255.95 119.106 256.341C119.634 257.105 120.358 258.157 121.233 259.413C122.996 261.94 125.404 265.331 128.417 269.36C134.438 277.411 142.885 288.015 153.498 299.421C174.603 322.103 204.841 348.573 242.193 364.045V364.046C270.006 375.573 288.803 381.132 302.666 383.332C317.063 385.617 325.853 384.222 333.132 382.668L333.144 382.665L333.154 382.663C343.892 380.35 355.634 375.345 365.611 368.598C375.363 362.003 384.983 352.679 389.126 340.959L389.127 340.957C392.359 331.81 394.016 323.233 394.613 316.326C394.911 312.885 394.962 309.676 394.754 306.893C394.595 304.763 394.18 300.864 392.258 297.5H392.259C389.567 292.787 385.234 290.241 382.738 288.877C380.327 287.559 376.374 285.738 373.687 284.392L373.682 284.389C370.13 282.611 359.81 277.502 349.556 272.55C339.995 267.933 329.296 262.863 324.982 261.298H324.983C320.207 259.494 314.394 258.48 308.283 260.075C302.029 261.707 297.037 265.66 293.31 270.904C286.261 280.744 280.357 289.27 275.738 294.274C275.681 294.302 275.551 294.351 275.308 294.384C274.712 294.465 273.789 294.39 272.801 293.979C265.16 290.79 245.307 283.861 220.384 261.689C202.024 245.324 189.103 224.861 184.656 217.429C184.962 217.057 185.274 216.693 185.71 216.182L185.818 216.055L185.924 215.924C187.36 214.141 188.804 212.571 190.477 210.796C192.086 209.087 194.05 207.042 196.03 204.744C199.407 200.829 202.463 197.545 205.51 191.12C210.333 181.495 206.891 172.369 204.936 168.126L204.564 167.338L204.488 167.173C204.435 167.056 204.367 166.901 204.28 166.705C204.107 166.312 203.886 165.8 203.617 165.172C203.08 163.917 202.386 162.272 201.571 160.325C199.943 156.436 197.862 151.419 195.647 146.06C191.238 135.389 186.265 123.289 183.396 116.363L183.383 116.33L182.9 115.198C180.443 109.554 177.275 104.19 172.019 100.75C166.446 97.1033 160.391 97.0007 157.351 96.8818C154.935 96.742 152.008 96.5889 148.721 96.5889Z" fill="currentColor" stroke="currentColor" stroke-width="25"/>
</symbol>
</svg>
